<svg style="display: none" version="1.1" xmlns="http://www.w3.org/2000/svg" xmlns:xlink="http://www.w3.org/1999/xlink"
    xmlns:ev="http://www.w3.org/2001/xml-events" xml:space="preserve">
      <g id="star">
        <path d="M29.324,92.938
        c0.693-1.294,1.458-2.514,2.433-3.527c-0.021-0.141-0.192-0.131-0.365-0.12c0.206-0.607,0.51-1.112,0.973-1.46
        c-0.049-0.152-0.157-0.249-0.365-0.244c0.458-0.597,0.863-1.246,1.582-1.58c-0.04-0.285-0.531-0.118-0.609-0.364
        c0.359-0.697,1.041-1.069,1.825-1.338c-0.104-0.263-0.535-0.197-0.729-0.365c0.334-0.68,1-1.027,1.824-1.216
        c-0.162-0.204-0.541-0.189-0.73-0.365c0.439-0.654,1.283-0.907,2.189-1.094c-0.103-0.263-0.627-0.104-0.729-0.367
        c0.278-0.694,1.089-0.855,2.067-0.851c-0.093-0.596-1.354-0.024-1.095-0.974c-0.928,0.452-1.539,1.22-2.919,1.217
        c-0.337-0.335,0.109-0.508,0.122-0.852c-0.94,0.276-1.456,0.978-2.676,0.974c-0.215-0.205,0.108-0.408,0-0.852
        c-0.657,0.236-1.526,1.311-3.041,1.094c0.008-0.559,0.346-0.788,0.487-1.216c-1.029,0.399-2.188,1.288-3.527,0.974
        c0.075-0.451,0.342-0.711,0.486-1.095c-0.784,0.515-1.899,0.695-3.284,0.607c0.213-0.435,0.442-0.854,0.729-1.216
        c-0.625,0.228-2.09,0.666-3.526,0.486c-0.029-0.515,0.354-0.618,0.486-0.972c-0.788,0-2.332-0.031-3.283-0.245
        c-0.019-0.302,0.19-0.375,0.243-0.607c-1.066,0.053-1.712-0.314-2.553-0.486c-0.294-0.282,0.189-0.325,0.242-0.609
        c-2.243-0.188-4.24-0.624-6.081-1.215c1.512-1.084,3.976-1.213,6.081-1.703c-0.048-0.234-0.471-0.096-0.364-0.486
        c0.767-0.286,1.42-0.688,2.554-0.608c0.34-0.155-0.383-0.25-0.243-0.607c0.953-0.18,2.26-0.524,3.284-0.243
        c-0.038-0.49-0.573-0.482-0.487-1.095c1.21-0.278,2.654,0.044,3.528,0.486c-0.178-0.513-0.631-0.747-0.729-1.339
        c1.218-0.042,2.375-0.024,3.041,0.488c0.329-0.299-0.372-0.596-0.244-1.095c1.131-0.144,2.554,0.437,3.405,0.972
        c0.012-0.579-0.469-0.665-0.486-1.216c1.317-0.312,2.338,0.53,3.162,1.095c0.027-0.392-0.215-0.515-0.121-0.974
        c0.852-0.22,1.653,0.6,2.554,0.729c0.287-0.033-0.14-0.324-0.122-0.485c-1.055-0.404-2.248-0.672-3.284-1.095
        c-0.09-0.617,0.301-0.752,0.486-1.095c-1.718-0.269-4.032-0.589-4.378-1.823c0.034-0.494,0.835-0.22,0.973-0.609
        c-1.359-0.465-3.017-0.631-3.892-1.581c0.116-0.653,0.886-0.653,1.095-1.216c-1.882,0.162-4.074-0.373-4.622-1.945
        c0.67-0.062,1.085-0.376,1.704-0.487c-1.7-0.732-3.749-1.117-4.865-2.433c0.281-0.57,1.229-0.474,1.703-0.852
        c-1.807-0.463-3.232-1.308-4.136-2.675c0.517-0.336,1.356-0.347,1.947-0.608c-1.777-0.697-3.269-1.677-4.379-3.041
        c0.326-0.403,1.053-0.406,1.581-0.608c-1.292-1.019-2.417-2.204-3.404-3.527c0.206-0.24,0.565-0.326,0.972-0.365
        c-1.008-0.938-1.995-1.897-2.311-3.527c0.244,0,0.487,0,0.73,0C8.676,39.195,6.203,36.763,5,33.709
        c3.143,1.074,5.667,2.765,8.149,4.5c0.272-0.052,0.049-0.599,0.122-0.851c1.485,0.339,2.649,0.999,3.526,1.946
        c0.188-0.177,0.256-0.475,0.244-0.852c1.725,0.586,2.826,1.795,4.013,2.919c0.243-0.406,0.075-1.222,0.365-1.581
        c1.693,0.78,2.655,2.291,3.527,3.892c0.323-0.487,0.143-1.479,0.487-1.946c1.467,0.803,2.412,2.128,3.04,3.771
        c0.401-0.37,0.235-1.306,0.608-1.703c1.548,0.925,2.15,2.796,2.919,4.5c0.32-0.409,0.276-1.183,0.487-1.703
        c1.605,0.665,2.174,2.367,2.433,4.379c0.406-0.283,0.474-0.905,0.851-1.217c1.185,0.763,1.547,2.345,2.067,3.771
        c0.325-0.202,0.214-0.84,0.486-1.095c1.436,0.673,1.946,2.271,2.19,4.134c0.451,0.333,0.452-0.626,1.094-0.485
        c0.306,0.222,0.222,0.83,0.73,0.851c-0.01-1.531-1.496-2.638-1.582-4.499c0.303-0.104,0.652-0.16,1.095-0.123
        c0.045-0.644-0.703-1.106-1.095-1.824c-0.578-1.057-1.102-2.561-0.729-3.648c0.642,0.007,0.824,0.474,1.337,0.608
        c-0.264-1.321-1.936-2.922-1.582-4.865c0.706-0.056,1.096,0.203,1.704,0.244c-0.757-1.164-2.745-3.257-1.946-5.594
        c0.755,0.217,1.237,0.708,1.946,0.972c-0.48-1.495-2.207-3.996-1.581-6.202c0.729,0.162,1.118,0.667,1.824,0.852
        c-0.548-1.156-1.202-3.258-0.973-5.595c0.752-0.121,1.448,0.806,2.189,1.095c-0.408-1.25-1.335-4.208-0.608-6.203
        c0.793,0.18,1.199,0.747,1.824,1.095c-0.418-1.795-0.108-4.322,0.365-5.959c0.399,0.046,0.536,0.356,0.852,0.487
        c0.235-1.711,0.482-3.41,1.215-4.622c0.527,0,0.481,0.573,0.852,0.729c0.407-2.946,0.848-5.964,1.581-8.514
        c0.236-0.82,0.531-1.728,1.095-2.311c1.201,3.178,1.913,6.844,2.432,10.703c0.269,0.26,0.34-0.709,0.853-0.608
        c0.638,1.267,1.124,2.686,1.095,4.622c0.457-0.029,0.515-0.458,0.973-0.487c0.44,1.606,0.806,4.097,0.364,5.837
        c0.531,0.043,1.051-0.974,1.946-0.973c0.341,2.236-0.048,4.714-0.852,6.203c0.809-0.286,1.354-0.835,2.067-1.216
        c0.659,1.907-0.022,4.495-0.851,5.717c0.799-0.094,1.187-0.597,1.824-0.852c0.588,0.293,0.327,1.213,0.243,1.703
        c-0.303,1.754-1.232,3.344-1.824,4.5c0.83-0.183,1.262-0.765,2.067-0.972c0.676,2.336-0.913,4.299-2.067,5.594
        c0.675,0.031,1.32-0.494,1.945-0.122c-0.115,2.074-1.14,3.238-1.824,4.743c0.636-0.064,0.914-0.821,1.581-0.486
        c0.183,2.156-1.076,3.85-2.066,5.229c0.22,0.266,0.951,0.02,1.215,0.244c-0.166,1.901-1.327,2.807-1.703,4.499
        c0.71,0.101,0.457-0.76,0.974-0.851c0.471,0.015,0.479,0.492,0.851,0.607c0.423-1.767,0.805-3.574,2.313-4.256
        c0.197,0.288,0.269,0.703,0.364,1.095c0.734-1.214,0.987-2.905,2.068-3.771c0.438,0.25,0.648,0.729,0.851,1.217
        c0.47-0.246,0.169-0.749,0.244-1.095c0.319-1.485,1.092-2.753,2.31-3.284c0.212,0.559,0.246,1.295,0.486,1.825
        c0.714-1.801,1.401-3.625,2.92-4.622c0.415,0.354,0.238,1.301,0.607,1.703c0.679-1.633,1.55-3.072,3.162-3.771
        c0.009,0.722,0.325,1.135,0.244,1.946c0.432-0.21,0.49-0.723,0.729-1.095c0.742-1.161,1.672-2.215,2.918-2.797
        c0.19,0.418,0.286,0.931,0.244,1.581c1.16-0.705,2.367-2.417,4.134-2.919c-0.06,0.384,0.22,0.43,0.123,0.852
        c1.081-0.742,1.937-1.712,3.648-1.825c0,0.244,0,0.487,0,0.729c2.636-1.622,5.103-3.41,8.27-4.5
        c-1.302,3.036-3.274,5.401-5.352,7.662c0.145,0.221,0.636,0.096,0.852,0.244c-0.44,1.424-1.151,2.578-2.311,3.283
        c0.158,0.288,0.657,0.235,0.974,0.365c-0.896,1.457-2.121,2.583-3.406,3.649c0.477,0.213,1.116,0.263,1.581,0.486
        c-1.039,1.435-2.388,2.559-4.379,3.042c0.38,0.512,1.411,0.374,1.947,0.729c-0.893,1.297-2.125,2.253-4.014,2.554
        c0.207,0.603,1.143,0.479,1.582,0.851c-1.014,1.421-2.946,1.921-4.866,2.433c0.419,0.394,1.231,0.393,1.703,0.729
        c-0.679,1.43-2.367,1.849-4.378,1.946c-0.214,0.34,0.753,0.54,0.85,0.973c-0.703,1.163-2.533,1.195-3.89,1.703
        c0.263,0.264,0.709,0.344,1.094,0.487c-0.617,1.491-2.557,1.66-4.379,1.945c-0.216,0.225,0.571,0.478,0.364,1.095
        c-1.03,0.672-2.927,0.479-3.527,1.58c1.067-0.068,1.441-0.828,2.677-0.729c0.204,0.221-0.101,0.615-0.122,0.974
        c0.85-0.541,1.864-1.389,3.163-1.095c0.038,0.566-0.377,0.677-0.487,1.095c0.763-0.155,2.316-1.135,3.527-0.851
        c-0.028,0.497-0.412,0.64-0.486,1.095c0.785-0.432,1.861-0.57,3.162-0.488c-0.005,0.604-0.482,0.736-0.607,1.219
        c0.998-0.313,2.302-0.649,3.526-0.366c-0.03,0.537-0.495,0.64-0.608,1.095c1.023-0.281,2.33,0.063,3.285,0.243
        c0.019,0.302-0.192,0.377-0.245,0.607c1.11-0.055,1.827,0.284,2.555,0.608c0.089,0.332-0.242,0.244-0.243,0.486
        c2.078,0.396,4.151,0.793,5.959,1.459c-0.583,0.663-1.708,0.785-2.675,0.974c-1.082,0.211-2.199,0.395-3.284,0.485
        c-0.347,0.152,0.527,0.354,0.121,0.609c-0.756,0.218-1.447,0.499-2.433,0.486c-0.33,0.111,0.325,0.227,0.123,0.607
        c-0.929,0.104-2.207,0.447-3.163,0.123c-0.264,0.271,0.497,0.55,0.365,1.094c-1.446,0.067-2.703-0.054-3.527-0.607
        c0.178,0.511,0.631,0.747,0.729,1.337c-1.312,0.058-2.49-0.022-3.162-0.607c-0.225,0.271,0.452,0.678,0.364,1.216
        c-1.468-0.031-2.406-0.592-3.404-1.095c0.003,0.499,0.618,0.845,0.365,1.216c-1.469,0.092-2.192-0.564-2.92-1.216
        c-0.371,0.226,0.14,0.579,0,0.974c-1.296,0-1.934-0.66-2.796-1.095c0.006,0.397,0.345,0.465,0.241,0.973
        c-1.362-0.015-2.122-0.634-2.918-1.217c-0.264-0.02-0.056,0.433-0.121,0.61c-0.465-0.061-0.776,0.033-0.974,0.241
        c0.79,0.184,1.615,0.332,2.068,0.852c-0.11,0.255-0.358,0.372-0.73,0.366c0.726,0.369,1.615,0.572,2.189,1.094
        c-0.11,0.255-0.358,0.371-0.729,0.365c0.694,0.32,1.351,0.676,1.824,1.216c-0.11,0.295-0.488,0.322-0.851,0.365
        c0.766,0.409,1.615,0.735,1.944,1.582c-0.343-0.103-0.314,0.17-0.607,0.119c0.423,0.51,0.993,0.874,1.337,1.46
        c-0.232,0.548,0.458,1.008,0.73,1.703c0.016,0.219-0.121,0.285-0.365,0.244c0.897,1.088,1.862,2.11,2.433,3.527
        c-1.492-0.373-2.485-1.244-3.648-1.947c-0.292-0.049,0.067,0.555-0.364,0.364c-0.49-0.239-0.944-0.514-1.339-0.85
        c-0.142,0.021-0.132,0.191-0.12,0.364c-0.7-0.314-1.29-0.738-1.703-1.339c-0.214,0.113-0.269,0.381-0.244,0.731
        c-0.705-0.433-1.348-0.924-1.58-1.825c-0.189,0.177-0.255,0.475-0.244,0.852c-0.868-0.146-1.075-0.953-1.459-1.582
        c-0.253,0.031-0.033,0.534-0.243,0.609c-0.736-0.358-1.017-1.174-1.338-1.947c-0.202,0.123-0.133,0.518-0.243,0.729
        c-0.717-0.255-0.974-0.972-1.095-1.824c-0.226-0.371-0.183,0.536-0.608,0.365c-0.249-0.561-0.599-1.021-0.73-1.702
        c-0.224,0.019-0.074,0.412-0.242,0.487c-0.767-0.168-0.784-1.082-1.095-1.703c-0.111-0.333-0.427,0.215-0.607-0.122
        c-0.156-0.452-0.39-0.827-0.487-1.337c-0.282-0.324-0.326,0.322-0.607,0c-0.192-0.499-0.4-0.979-0.365-1.704
        c-0.151-0.552-0.354,0.211-0.608-0.121c-0.485-1.257-0.831-2.657-1.216-4.012c-1.284,5.155,0.345,10.897,0,16.174
        c-0.284,0-0.567,0-0.851,0c0.107-5.457-1.193-10.334-0.244-15.568c-0.477,0.983-0.624,2.297-0.973,3.406
        c-0.332,0.088-0.245-0.242-0.487-0.244c-0.112,0.658-0.172,1.369-0.365,1.946c-0.16,0.158-0.448,0.158-0.608,0
        c-0.286,0.484-0.392,1.148-0.73,1.582c-0.332,0.088-0.245-0.242-0.486-0.243c-0.199,0.813-0.318,1.708-1.095,1.946
        c0.009-0.213-0.027-0.379-0.122-0.487c-0.372,0.52-0.506,1.278-0.973,1.702c-0.313-0.011-0.174-0.475-0.487-0.486
        c-0.108,0.907-0.35,1.678-1.094,1.945c-0.14-0.142-0.138-0.429-0.122-0.729c-0.56,0.536-0.661,1.529-1.337,1.947
        c-0.441,0.117-0.125-0.525-0.365-0.609c-0.415,0.599-0.713,1.314-1.459,1.582c-0.04-0.286-0.192-0.456-0.122-0.852
        c-0.432,0.703-0.927,1.344-1.581,1.825c-0.175-0.151-0.23-0.419-0.244-0.731c-0.54,0.474-1.078,0.947-1.702,1.339
        c-0.171-0.032-0.138-0.268-0.243-0.364c-0.451,0.359-0.95,0.672-1.581,0.85c0-0.121,0-0.242,0-0.364
        c-1.249,0.697-2.429,1.463-3.771,2.067C29.406,92.938,29.365,92.938,29.324,92.938z M50,0C22.386,0,0,22.386,0,50s22.386,50,50,50
        s50-22.386,50-50S77.614,0,50,0z">
        </path>
      </g>
      <g id="text">
        <text dy="-18" font-size="2rem">NOW</text>
        <text font-size="1.45rem">other</text>
        <text dy="15" font-size="1.13rem">THING</text>
      </g>
    </svg>